<svg xmlns="http://www.w3.org/2000/svg" width="319" height="319" viewBox="0 0 319 319">
  <g id="Group_1" data-name="Group 1" transform="translate(-1272 -286)">
    <g id="Rectangle_1" data-name="Rectangle 1" transform="translate(1272 286)" fill="#2563eb" stroke="#707070" stroke-width="1">
      <rect width="319" height="319" rx="30" stroke="none"/>
      <rect x="0.5" y="0.5" width="318" height="318" rx="29.5" fill="none"/>
    </g>
    <path id="Path_1" data-name="Path 1" d="M67.44-45.171a111.153,111.153,0,0,1-20.058-1.891A171.791,171.791,0,0,1,28.24-51.647a98.164,98.164,0,0,1-13.984-5.215l3.439-31.177q8.023,3.9,16.735,7.221A130.344,130.344,0,0,0,52.31-75.431a84.331,84.331,0,0,0,18.568,2.063q11.691,0,18.8-4.585t7.106-13.984q0-7.221-4.012-11.634t-12.264-7.909q-8.253-3.5-21.09-7.966a146.482,146.482,0,0,1-23.039-10.144,46.6,46.6,0,0,1-16.161-14.385q-5.96-8.711-5.96-22.236a43.47,43.47,0,0,1,6.533-23.669q6.533-10.373,19.543-16.276t32.38-5.9a116.841,116.841,0,0,1,27.967,3.267,170.53,170.53,0,0,1,22.695,7.049l-2.98,30.03a167.315,167.315,0,0,0-25.388-9.227,93.566,93.566,0,0,0-24.128-3.152q-12.837,0-19.829,4.241t-6.992,12.723q0,6.763,3.9,10.889a31.133,31.133,0,0,0,11.118,7.049q7.221,2.923,17.308,6.132a159.96,159.96,0,0,1,29.285,12.092q11.863,6.591,17.881,15.932t6.018,23.1a57.755,57.755,0,0,1-2.178,14.958,37.861,37.861,0,0,1-8.6,15.3q-6.419,7.221-18.74,11.863T67.44-45.171Z" transform="translate(1359.744 574.058)" fill="#fff"/>
  </g>
</svg>
